<?xml version="1.0" standalone="no"?>
<!DOCTYPE svg PUBLIC "-//W3C//DTD SVG 20010904//EN" "http://www.w3.org/TR/2001/REC-SVG-20010904/DTD/svg10.dtd">

<svg version="1.0" xmlns="http://www.w3.org/2000/svg" width="169.000000pt" height="95.000000pt" viewBox="0 0 169.000000 95.000000" preserveAspectRatio="xMidYMid meet">
  <g transform="translate(0.000000,95.000000) scale(0.100000,-0.100000)" fill="white" stroke="none">
    <path d="M155 886 c-40 -17 -84 -63 -101 -103 -11 -25 -14 -98 -14 -310 0
    -316 4 -335 82 -389 l41 -29 676 0 676 0 36 24 c20 14 47 41 60 60 24 34 24
    38 27 310 2 152 0 291 -3 309 -8 42 -59 100 -110 123 -37 17 -82 19 -690 18
    -517 0 -656 -2 -680 -13z m1355 -54 c19 -9 45 -33 58 -52 23 -34 23 -36 20
    -316 l-3 -282 -25 -27 c-53 -57 -26 -55 -720 -55 -694 0 -667 -2 -720 55 l-25
    27 -3 281 c-2 268 -1 284 18 315 11 18 34 41 52 52 32 19 52 20 673 20 589 0
    643 -1 675 -18z"/>
    
    <path d="M282 767 c-15 -18 -126 -563 -118 -583 5 -14 70 -20 99 -8 10 3 23
    45 38 125 l23 119 37 0 c61 0 78 -26 99 -150 7 -41 17 -81 22 -87 15 -19 107
    -17 114 2 11 27 -27 194 -51 230 l-23 33 47 30 c56 34 91 96 91 160 0 56 -17
    88 -59 115 -32 19 -52 22 -172 25 -109 3 -137 1 -147 -11z m226 -93 c14 -10
    22 -26 22 -44 0 -76 -50 -120 -136 -120 l-52 0 14 68 c25 122 18 112 77 112
    31 0 62 -6 75 -16z"/>
    
    <path d="M821 766 c-14 -17 -124 -563 -117 -582 6 -15 82 -20 102 -6 7 4 20
    50 31 102 l19 95 81 7 c165 13 252 99 253 247 0 58 -3 66 -33 96 -18 18 -51
    38 -72 44 -60 16 -250 14 -264 -3z m220 -105 c43 -35 19 -135 -41 -166 -31
    -16 -120 -21 -120 -6 0 11 30 161 35 179 7 20 99 15 126 -7z"/>
    
    <path d="M1393 768 c-5 -7 -30 -112 -54 -233 -47 -237 -58 -261 -107 -252 -15
    2 -35 8 -44 12 -13 5 -20 0 -28 -20 -19 -49 -13 -84 16 -95 76 -29 176 4 213
    71 23 41 125 504 115 521 -8 13 -101 9 -111 -4z"/>  
  </g>
</svg>
